%TF.GenerationSoftware,KiCad,Pcbnew,(6.0.2)*%
%TF.CreationDate,2023-07-03T16:13:51+01:00*%
%TF.ProjectId,Stretchy,53747265-7463-4687-992e-6b696361645f,rev?*%
%TF.SameCoordinates,Original*%
%TF.FileFunction,Legend,Top*%
%TF.FilePolarity,Positive*%
%FSLAX46Y46*%
G04 Gerber Fmt 4.6, Leading zero omitted, Abs format (unit mm)*
G04 Created by KiCad (PCBNEW (6.0.2)) date 2023-07-03 16:13:51*
%MOMM*%
%LPD*%
G01*
G04 APERTURE LIST*
%ADD10C,0.300000*%
%ADD11C,0.075000*%
%ADD12C,0.150000*%
%ADD13C,0.127000*%
%ADD14C,0.200000*%
G04 APERTURE END LIST*
D10*
X127540000Y-95698571D02*
X128040000Y-97198571D01*
X128540000Y-95698571D01*
X129040000Y-97198571D02*
X129040000Y-95698571D01*
X129397142Y-95698571D01*
X129611428Y-95770000D01*
X129754285Y-95912857D01*
X129825714Y-96055714D01*
X129897142Y-96341428D01*
X129897142Y-96555714D01*
X129825714Y-96841428D01*
X129754285Y-96984285D01*
X129611428Y-97127142D01*
X129397142Y-97198571D01*
X129040000Y-97198571D01*
X130540000Y-97198571D02*
X130540000Y-95698571D01*
X130897142Y-95698571D01*
X131111428Y-95770000D01*
X131254285Y-95912857D01*
X131325714Y-96055714D01*
X131397142Y-96341428D01*
X131397142Y-96555714D01*
X131325714Y-96841428D01*
X131254285Y-96984285D01*
X131111428Y-97127142D01*
X130897142Y-97198571D01*
X130540000Y-97198571D01*
D11*
X106622857Y-92545714D02*
X106480000Y-92545714D01*
X106465714Y-92688571D01*
X106480000Y-92674285D01*
X106508571Y-92660000D01*
X106580000Y-92660000D01*
X106608571Y-92674285D01*
X106622857Y-92688571D01*
X106637142Y-92717142D01*
X106637142Y-92788571D01*
X106622857Y-92817142D01*
X106608571Y-92831428D01*
X106580000Y-92845714D01*
X106508571Y-92845714D01*
X106480000Y-92831428D01*
X106465714Y-92817142D01*
X106722857Y-92545714D02*
X106822857Y-92845714D01*
X106922857Y-92545714D01*
X116354285Y-102991428D02*
X116397142Y-103005714D01*
X116468571Y-103005714D01*
X116497142Y-102991428D01*
X116511428Y-102977142D01*
X116525714Y-102948571D01*
X116525714Y-102920000D01*
X116511428Y-102891428D01*
X116497142Y-102877142D01*
X116468571Y-102862857D01*
X116411428Y-102848571D01*
X116382857Y-102834285D01*
X116368571Y-102820000D01*
X116354285Y-102791428D01*
X116354285Y-102762857D01*
X116368571Y-102734285D01*
X116382857Y-102720000D01*
X116411428Y-102705714D01*
X116482857Y-102705714D01*
X116525714Y-102720000D01*
X116611428Y-102705714D02*
X116782857Y-102705714D01*
X116697142Y-103005714D02*
X116697142Y-102705714D01*
X116882857Y-102848571D02*
X116982857Y-102848571D01*
X117025714Y-103005714D02*
X116882857Y-103005714D01*
X116882857Y-102705714D01*
X117025714Y-102705714D01*
X117154285Y-103005714D02*
X117154285Y-102705714D01*
X117268571Y-102705714D01*
X117297142Y-102720000D01*
X117311428Y-102734285D01*
X117325714Y-102762857D01*
X117325714Y-102805714D01*
X117311428Y-102834285D01*
X117297142Y-102848571D01*
X117268571Y-102862857D01*
X117154285Y-102862857D01*
X145821428Y-82400000D02*
X145792857Y-82385714D01*
X145750000Y-82385714D01*
X145707142Y-82400000D01*
X145678571Y-82428571D01*
X145664285Y-82457142D01*
X145650000Y-82514285D01*
X145650000Y-82557142D01*
X145664285Y-82614285D01*
X145678571Y-82642857D01*
X145707142Y-82671428D01*
X145750000Y-82685714D01*
X145778571Y-82685714D01*
X145821428Y-82671428D01*
X145835714Y-82657142D01*
X145835714Y-82557142D01*
X145778571Y-82557142D01*
X145964285Y-82685714D02*
X145964285Y-82385714D01*
X146135714Y-82685714D01*
X146135714Y-82385714D01*
X146278571Y-82685714D02*
X146278571Y-82385714D01*
X146350000Y-82385714D01*
X146392857Y-82400000D01*
X146421428Y-82428571D01*
X146435714Y-82457142D01*
X146450000Y-82514285D01*
X146450000Y-82557142D01*
X146435714Y-82614285D01*
X146421428Y-82642857D01*
X146392857Y-82671428D01*
X146350000Y-82685714D01*
X146278571Y-82685714D01*
D10*
X128397142Y-108470000D02*
X128254285Y-108398571D01*
X128040000Y-108398571D01*
X127825714Y-108470000D01*
X127682857Y-108612857D01*
X127611428Y-108755714D01*
X127540000Y-109041428D01*
X127540000Y-109255714D01*
X127611428Y-109541428D01*
X127682857Y-109684285D01*
X127825714Y-109827142D01*
X128040000Y-109898571D01*
X128182857Y-109898571D01*
X128397142Y-109827142D01*
X128468571Y-109755714D01*
X128468571Y-109255714D01*
X128182857Y-109255714D01*
X129111428Y-109898571D02*
X129111428Y-108398571D01*
X129968571Y-109898571D01*
X129968571Y-108398571D01*
X130682857Y-109898571D02*
X130682857Y-108398571D01*
X131040000Y-108398571D01*
X131254285Y-108470000D01*
X131397142Y-108612857D01*
X131468571Y-108755714D01*
X131540000Y-109041428D01*
X131540000Y-109255714D01*
X131468571Y-109541428D01*
X131397142Y-109684285D01*
X131254285Y-109827142D01*
X131040000Y-109898571D01*
X130682857Y-109898571D01*
X150471428Y-107358571D02*
X150471428Y-105858571D01*
X150971428Y-106930000D01*
X151471428Y-105858571D01*
X151471428Y-107358571D01*
X152114285Y-107287142D02*
X152328571Y-107358571D01*
X152685714Y-107358571D01*
X152828571Y-107287142D01*
X152900000Y-107215714D01*
X152971428Y-107072857D01*
X152971428Y-106930000D01*
X152900000Y-106787142D01*
X152828571Y-106715714D01*
X152685714Y-106644285D01*
X152400000Y-106572857D01*
X152257142Y-106501428D01*
X152185714Y-106430000D01*
X152114285Y-106287142D01*
X152114285Y-106144285D01*
X152185714Y-106001428D01*
X152257142Y-105930000D01*
X152400000Y-105858571D01*
X152757142Y-105858571D01*
X152971428Y-105930000D01*
X153542857Y-106001428D02*
X153614285Y-105930000D01*
X153757142Y-105858571D01*
X154114285Y-105858571D01*
X154257142Y-105930000D01*
X154328571Y-106001428D01*
X154400000Y-106144285D01*
X154400000Y-106287142D01*
X154328571Y-106501428D01*
X153471428Y-107358571D01*
X154400000Y-107358571D01*
X151292857Y-111652857D02*
X151792857Y-111652857D01*
X152007142Y-112438571D02*
X151292857Y-112438571D01*
X151292857Y-110938571D01*
X152007142Y-110938571D01*
X152650000Y-112438571D02*
X152650000Y-110938571D01*
X153507142Y-112438571D01*
X153507142Y-110938571D01*
X140842857Y-76950000D02*
X140985714Y-77021428D01*
X141200000Y-77021428D01*
X141414285Y-76950000D01*
X141557142Y-76807142D01*
X141628571Y-76664285D01*
X141700000Y-76378571D01*
X141700000Y-76164285D01*
X141628571Y-75878571D01*
X141557142Y-75735714D01*
X141414285Y-75592857D01*
X141200000Y-75521428D01*
X141057142Y-75521428D01*
X140842857Y-75592857D01*
X140771428Y-75664285D01*
X140771428Y-76164285D01*
X141057142Y-76164285D01*
X140128571Y-75521428D02*
X140128571Y-77021428D01*
X139271428Y-75521428D01*
X139271428Y-77021428D01*
X138557142Y-75521428D02*
X138557142Y-77021428D01*
X138200000Y-77021428D01*
X137985714Y-76950000D01*
X137842857Y-76807142D01*
X137771428Y-76664285D01*
X137700000Y-76378571D01*
X137700000Y-76164285D01*
X137771428Y-75878571D01*
X137842857Y-75735714D01*
X137985714Y-75592857D01*
X138200000Y-75521428D01*
X138557142Y-75521428D01*
X126825714Y-110938571D02*
X127325714Y-112438571D01*
X127825714Y-110938571D01*
X128325714Y-112438571D02*
X128325714Y-110938571D01*
X128825714Y-112010000D01*
X129325714Y-110938571D01*
X129325714Y-112438571D01*
X130325714Y-110938571D02*
X130611428Y-110938571D01*
X130754285Y-111010000D01*
X130897142Y-111152857D01*
X130968571Y-111438571D01*
X130968571Y-111938571D01*
X130897142Y-112224285D01*
X130754285Y-112367142D01*
X130611428Y-112438571D01*
X130325714Y-112438571D01*
X130182857Y-112367142D01*
X130040000Y-112224285D01*
X129968571Y-111938571D01*
X129968571Y-111438571D01*
X130040000Y-111152857D01*
X130182857Y-111010000D01*
X130325714Y-110938571D01*
X131397142Y-110938571D02*
X132254285Y-110938571D01*
X131825714Y-112438571D02*
X131825714Y-110938571D01*
X129325714Y-102278571D02*
X128468571Y-102278571D01*
X128897142Y-102278571D02*
X128897142Y-100778571D01*
X128754285Y-100992857D01*
X128611428Y-101135714D01*
X128468571Y-101207142D01*
X129897142Y-101850000D02*
X130611428Y-101850000D01*
X129754285Y-102278571D02*
X130254285Y-100778571D01*
X130754285Y-102278571D01*
D11*
X120421428Y-110086000D02*
X120392857Y-110071714D01*
X120350000Y-110071714D01*
X120307142Y-110086000D01*
X120278571Y-110114571D01*
X120264285Y-110143142D01*
X120250000Y-110200285D01*
X120250000Y-110243142D01*
X120264285Y-110300285D01*
X120278571Y-110328857D01*
X120307142Y-110357428D01*
X120350000Y-110371714D01*
X120378571Y-110371714D01*
X120421428Y-110357428D01*
X120435714Y-110343142D01*
X120435714Y-110243142D01*
X120378571Y-110243142D01*
X120564285Y-110371714D02*
X120564285Y-110071714D01*
X120735714Y-110371714D01*
X120735714Y-110071714D01*
X120878571Y-110371714D02*
X120878571Y-110071714D01*
X120950000Y-110071714D01*
X120992857Y-110086000D01*
X121021428Y-110114571D01*
X121035714Y-110143142D01*
X121050000Y-110200285D01*
X121050000Y-110243142D01*
X121035714Y-110300285D01*
X121021428Y-110328857D01*
X120992857Y-110357428D01*
X120950000Y-110371714D01*
X120878571Y-110371714D01*
D10*
X128397142Y-93230000D02*
X128254285Y-93158571D01*
X128040000Y-93158571D01*
X127825714Y-93230000D01*
X127682857Y-93372857D01*
X127611428Y-93515714D01*
X127540000Y-93801428D01*
X127540000Y-94015714D01*
X127611428Y-94301428D01*
X127682857Y-94444285D01*
X127825714Y-94587142D01*
X128040000Y-94658571D01*
X128182857Y-94658571D01*
X128397142Y-94587142D01*
X128468571Y-94515714D01*
X128468571Y-94015714D01*
X128182857Y-94015714D01*
X129111428Y-94658571D02*
X129111428Y-93158571D01*
X129968571Y-94658571D01*
X129968571Y-93158571D01*
X130682857Y-94658571D02*
X130682857Y-93158571D01*
X131040000Y-93158571D01*
X131254285Y-93230000D01*
X131397142Y-93372857D01*
X131468571Y-93515714D01*
X131540000Y-93801428D01*
X131540000Y-94015714D01*
X131468571Y-94301428D01*
X131397142Y-94444285D01*
X131254285Y-94587142D01*
X131040000Y-94658571D01*
X130682857Y-94658571D01*
X150614285Y-99667142D02*
X150828571Y-99738571D01*
X151185714Y-99738571D01*
X151328571Y-99667142D01*
X151400000Y-99595714D01*
X151471428Y-99452857D01*
X151471428Y-99310000D01*
X151400000Y-99167142D01*
X151328571Y-99095714D01*
X151185714Y-99024285D01*
X150900000Y-98952857D01*
X150757142Y-98881428D01*
X150685714Y-98810000D01*
X150614285Y-98667142D01*
X150614285Y-98524285D01*
X150685714Y-98381428D01*
X150757142Y-98310000D01*
X150900000Y-98238571D01*
X151257142Y-98238571D01*
X151471428Y-98310000D01*
X152828571Y-99738571D02*
X152114285Y-99738571D01*
X152114285Y-98238571D01*
X153328571Y-99738571D02*
X153328571Y-98238571D01*
X153900000Y-98238571D01*
X154042857Y-98310000D01*
X154114285Y-98381428D01*
X154185714Y-98524285D01*
X154185714Y-98738571D01*
X154114285Y-98881428D01*
X154042857Y-98952857D01*
X153900000Y-99024285D01*
X153328571Y-99024285D01*
D11*
X108870000Y-100465714D02*
X108870000Y-100165714D01*
X108984285Y-100165714D01*
X109012857Y-100180000D01*
X109027142Y-100194285D01*
X109041428Y-100222857D01*
X109041428Y-100265714D01*
X109027142Y-100294285D01*
X109012857Y-100308571D01*
X108984285Y-100322857D01*
X108870000Y-100322857D01*
X109227142Y-100165714D02*
X109284285Y-100165714D01*
X109312857Y-100180000D01*
X109341428Y-100208571D01*
X109355714Y-100265714D01*
X109355714Y-100365714D01*
X109341428Y-100422857D01*
X109312857Y-100451428D01*
X109284285Y-100465714D01*
X109227142Y-100465714D01*
X109198571Y-100451428D01*
X109170000Y-100422857D01*
X109155714Y-100365714D01*
X109155714Y-100265714D01*
X109170000Y-100208571D01*
X109198571Y-100180000D01*
X109227142Y-100165714D01*
X109441428Y-100165714D02*
X109612857Y-100165714D01*
X109527142Y-100465714D02*
X109527142Y-100165714D01*
X111329640Y-102684514D02*
X111429640Y-102984514D01*
X111529640Y-102684514D01*
X111801068Y-102955942D02*
X111786782Y-102970228D01*
X111743925Y-102984514D01*
X111715354Y-102984514D01*
X111672497Y-102970228D01*
X111643925Y-102941657D01*
X111629640Y-102913085D01*
X111615354Y-102855942D01*
X111615354Y-102813085D01*
X111629640Y-102755942D01*
X111643925Y-102727371D01*
X111672497Y-102698800D01*
X111715354Y-102684514D01*
X111743925Y-102684514D01*
X111786782Y-102698800D01*
X111801068Y-102713085D01*
X112101068Y-102955942D02*
X112086782Y-102970228D01*
X112043925Y-102984514D01*
X112015354Y-102984514D01*
X111972497Y-102970228D01*
X111943925Y-102941657D01*
X111929640Y-102913085D01*
X111915354Y-102855942D01*
X111915354Y-102813085D01*
X111929640Y-102755942D01*
X111943925Y-102727371D01*
X111972497Y-102698800D01*
X112015354Y-102684514D01*
X112043925Y-102684514D01*
X112086782Y-102698800D01*
X112101068Y-102713085D01*
D10*
X140985714Y-78490000D02*
X140271428Y-78490000D01*
X141128571Y-78061428D02*
X140628571Y-79561428D01*
X140128571Y-78061428D01*
X139628571Y-78632857D02*
X138485714Y-78632857D01*
X139057142Y-78061428D02*
X139057142Y-79204285D01*
X149971428Y-97127142D02*
X150185714Y-97198571D01*
X150542857Y-97198571D01*
X150685714Y-97127142D01*
X150757142Y-97055714D01*
X150828571Y-96912857D01*
X150828571Y-96770000D01*
X150757142Y-96627142D01*
X150685714Y-96555714D01*
X150542857Y-96484285D01*
X150257142Y-96412857D01*
X150114285Y-96341428D01*
X150042857Y-96270000D01*
X149971428Y-96127142D01*
X149971428Y-95984285D01*
X150042857Y-95841428D01*
X150114285Y-95770000D01*
X150257142Y-95698571D01*
X150614285Y-95698571D01*
X150828571Y-95770000D01*
X151257142Y-95698571D02*
X152114285Y-95698571D01*
X151685714Y-97198571D02*
X151685714Y-95698571D01*
X152614285Y-96412857D02*
X153114285Y-96412857D01*
X153328571Y-97198571D02*
X152614285Y-97198571D01*
X152614285Y-95698571D01*
X153328571Y-95698571D01*
X153971428Y-97198571D02*
X153971428Y-95698571D01*
X154542857Y-95698571D01*
X154685714Y-95770000D01*
X154757142Y-95841428D01*
X154828571Y-95984285D01*
X154828571Y-96198571D01*
X154757142Y-96341428D01*
X154685714Y-96412857D01*
X154542857Y-96484285D01*
X153971428Y-96484285D01*
D11*
X109162857Y-102977142D02*
X109148571Y-102991428D01*
X109105714Y-103005714D01*
X109077142Y-103005714D01*
X109034285Y-102991428D01*
X109005714Y-102962857D01*
X108991428Y-102934285D01*
X108977142Y-102877142D01*
X108977142Y-102834285D01*
X108991428Y-102777142D01*
X109005714Y-102748571D01*
X109034285Y-102720000D01*
X109077142Y-102705714D01*
X109105714Y-102705714D01*
X109148571Y-102720000D01*
X109162857Y-102734285D01*
X109291428Y-103005714D02*
X109291428Y-102705714D01*
X109462857Y-103005714D02*
X109334285Y-102834285D01*
X109462857Y-102705714D02*
X109291428Y-102877142D01*
D10*
X128468571Y-103461428D02*
X128540000Y-103390000D01*
X128682857Y-103318571D01*
X129040000Y-103318571D01*
X129182857Y-103390000D01*
X129254285Y-103461428D01*
X129325714Y-103604285D01*
X129325714Y-103747142D01*
X129254285Y-103961428D01*
X128397142Y-104818571D01*
X129325714Y-104818571D01*
X129897142Y-104390000D02*
X130611428Y-104390000D01*
X129754285Y-104818571D02*
X130254285Y-103318571D01*
X130754285Y-104818571D01*
D11*
X145792857Y-74726000D02*
X145935714Y-74726000D01*
X145764285Y-74811714D02*
X145864285Y-74511714D01*
X145964285Y-74811714D01*
X146064285Y-74697428D02*
X146292857Y-74697428D01*
X146178571Y-74811714D02*
X146178571Y-74583142D01*
D10*
X103600000Y-82101428D02*
X103100000Y-80601428D01*
X102600000Y-82101428D01*
X101242857Y-80744285D02*
X101314285Y-80672857D01*
X101528571Y-80601428D01*
X101671428Y-80601428D01*
X101885714Y-80672857D01*
X102028571Y-80815714D01*
X102100000Y-80958571D01*
X102171428Y-81244285D01*
X102171428Y-81458571D01*
X102100000Y-81744285D01*
X102028571Y-81887142D01*
X101885714Y-82030000D01*
X101671428Y-82101428D01*
X101528571Y-82101428D01*
X101314285Y-82030000D01*
X101242857Y-81958571D01*
X99742857Y-80744285D02*
X99814285Y-80672857D01*
X100028571Y-80601428D01*
X100171428Y-80601428D01*
X100385714Y-80672857D01*
X100528571Y-80815714D01*
X100600000Y-80958571D01*
X100671428Y-81244285D01*
X100671428Y-81458571D01*
X100600000Y-81744285D01*
X100528571Y-81887142D01*
X100385714Y-82030000D01*
X100171428Y-82101428D01*
X100028571Y-82101428D01*
X99814285Y-82030000D01*
X99742857Y-81958571D01*
X129218571Y-99738571D02*
X128361428Y-99738571D01*
X128790000Y-99738571D02*
X128790000Y-98238571D01*
X128647142Y-98452857D01*
X128504285Y-98595714D01*
X128361428Y-98667142D01*
X130361428Y-98952857D02*
X130575714Y-99024285D01*
X130647142Y-99095714D01*
X130718571Y-99238571D01*
X130718571Y-99452857D01*
X130647142Y-99595714D01*
X130575714Y-99667142D01*
X130432857Y-99738571D01*
X129861428Y-99738571D01*
X129861428Y-98238571D01*
X130361428Y-98238571D01*
X130504285Y-98310000D01*
X130575714Y-98381428D01*
X130647142Y-98524285D01*
X130647142Y-98667142D01*
X130575714Y-98810000D01*
X130504285Y-98881428D01*
X130361428Y-98952857D01*
X129861428Y-98952857D01*
X101885714Y-75664285D02*
X101957142Y-75592857D01*
X102171428Y-75521428D01*
X102314285Y-75521428D01*
X102528571Y-75592857D01*
X102671428Y-75735714D01*
X102742857Y-75878571D01*
X102814285Y-76164285D01*
X102814285Y-76378571D01*
X102742857Y-76664285D01*
X102671428Y-76807142D01*
X102528571Y-76950000D01*
X102314285Y-77021428D01*
X102171428Y-77021428D01*
X101957142Y-76950000D01*
X101885714Y-76878571D01*
X101242857Y-75521428D02*
X101242857Y-77021428D01*
X100385714Y-75521428D02*
X101028571Y-76378571D01*
X100385714Y-77021428D02*
X101242857Y-76164285D01*
X150900000Y-94658571D02*
X150900000Y-93158571D01*
X151257142Y-93158571D01*
X151471428Y-93230000D01*
X151614285Y-93372857D01*
X151685714Y-93515714D01*
X151757142Y-93801428D01*
X151757142Y-94015714D01*
X151685714Y-94301428D01*
X151614285Y-94444285D01*
X151471428Y-94587142D01*
X151257142Y-94658571D01*
X150900000Y-94658571D01*
X152400000Y-94658571D02*
X152400000Y-93158571D01*
X153971428Y-94658571D02*
X153471428Y-93944285D01*
X153114285Y-94658571D02*
X153114285Y-93158571D01*
X153685714Y-93158571D01*
X153828571Y-93230000D01*
X153900000Y-93301428D01*
X153971428Y-93444285D01*
X153971428Y-93658571D01*
X153900000Y-93801428D01*
X153828571Y-93872857D01*
X153685714Y-93944285D01*
X153114285Y-93944285D01*
X150471428Y-109898571D02*
X150471428Y-108398571D01*
X150971428Y-109470000D01*
X151471428Y-108398571D01*
X151471428Y-109898571D01*
X152114285Y-109827142D02*
X152328571Y-109898571D01*
X152685714Y-109898571D01*
X152828571Y-109827142D01*
X152900000Y-109755714D01*
X152971428Y-109612857D01*
X152971428Y-109470000D01*
X152900000Y-109327142D01*
X152828571Y-109255714D01*
X152685714Y-109184285D01*
X152400000Y-109112857D01*
X152257142Y-109041428D01*
X152185714Y-108970000D01*
X152114285Y-108827142D01*
X152114285Y-108684285D01*
X152185714Y-108541428D01*
X152257142Y-108470000D01*
X152400000Y-108398571D01*
X152757142Y-108398571D01*
X152971428Y-108470000D01*
X154400000Y-109898571D02*
X153542857Y-109898571D01*
X153971428Y-109898571D02*
X153971428Y-108398571D01*
X153828571Y-108612857D01*
X153685714Y-108755714D01*
X153542857Y-108827142D01*
X150221428Y-102278571D02*
X149721428Y-101564285D01*
X149364285Y-102278571D02*
X149364285Y-100778571D01*
X149935714Y-100778571D01*
X150078571Y-100850000D01*
X150150000Y-100921428D01*
X150221428Y-101064285D01*
X150221428Y-101278571D01*
X150150000Y-101421428D01*
X150078571Y-101492857D01*
X149935714Y-101564285D01*
X149364285Y-101564285D01*
X150864285Y-101492857D02*
X151364285Y-101492857D01*
X151578571Y-102278571D02*
X150864285Y-102278571D01*
X150864285Y-100778571D01*
X151578571Y-100778571D01*
X152150000Y-102207142D02*
X152364285Y-102278571D01*
X152721428Y-102278571D01*
X152864285Y-102207142D01*
X152935714Y-102135714D01*
X153007142Y-101992857D01*
X153007142Y-101850000D01*
X152935714Y-101707142D01*
X152864285Y-101635714D01*
X152721428Y-101564285D01*
X152435714Y-101492857D01*
X152292857Y-101421428D01*
X152221428Y-101350000D01*
X152150000Y-101207142D01*
X152150000Y-101064285D01*
X152221428Y-100921428D01*
X152292857Y-100850000D01*
X152435714Y-100778571D01*
X152792857Y-100778571D01*
X153007142Y-100850000D01*
X153650000Y-101492857D02*
X154150000Y-101492857D01*
X154364285Y-102278571D02*
X153650000Y-102278571D01*
X153650000Y-100778571D01*
X154364285Y-100778571D01*
X154792857Y-100778571D02*
X155650000Y-100778571D01*
X155221428Y-102278571D02*
X155221428Y-100778571D01*
D11*
X116540000Y-100465714D02*
X116540000Y-100165714D01*
X116611428Y-100165714D01*
X116654285Y-100180000D01*
X116682857Y-100208571D01*
X116697142Y-100237142D01*
X116711428Y-100294285D01*
X116711428Y-100337142D01*
X116697142Y-100394285D01*
X116682857Y-100422857D01*
X116654285Y-100451428D01*
X116611428Y-100465714D01*
X116540000Y-100465714D01*
X116840000Y-100465714D02*
X116840000Y-100165714D01*
X117154285Y-100465714D02*
X117054285Y-100322857D01*
X116982857Y-100465714D02*
X116982857Y-100165714D01*
X117097142Y-100165714D01*
X117125714Y-100180000D01*
X117140000Y-100194285D01*
X117154285Y-100222857D01*
X117154285Y-100265714D01*
X117140000Y-100294285D01*
X117125714Y-100308571D01*
X117097142Y-100322857D01*
X116982857Y-100322857D01*
D10*
X140521428Y-71227142D02*
X140307142Y-71155714D01*
X140235714Y-71084285D01*
X140164285Y-70941428D01*
X140164285Y-70727142D01*
X140235714Y-70584285D01*
X140307142Y-70512857D01*
X140450000Y-70441428D01*
X141021428Y-70441428D01*
X141021428Y-71941428D01*
X140521428Y-71941428D01*
X140378571Y-71870000D01*
X140307142Y-71798571D01*
X140235714Y-71655714D01*
X140235714Y-71512857D01*
X140307142Y-71370000D01*
X140378571Y-71298571D01*
X140521428Y-71227142D01*
X141021428Y-71227142D01*
X139521428Y-71012857D02*
X138378571Y-71012857D01*
D11*
X114071428Y-100180000D02*
X114042857Y-100165714D01*
X114000000Y-100165714D01*
X113957142Y-100180000D01*
X113928571Y-100208571D01*
X113914285Y-100237142D01*
X113900000Y-100294285D01*
X113900000Y-100337142D01*
X113914285Y-100394285D01*
X113928571Y-100422857D01*
X113957142Y-100451428D01*
X114000000Y-100465714D01*
X114028571Y-100465714D01*
X114071428Y-100451428D01*
X114085714Y-100437142D01*
X114085714Y-100337142D01*
X114028571Y-100337142D01*
X114214285Y-100465714D02*
X114214285Y-100165714D01*
X114385714Y-100465714D01*
X114385714Y-100165714D01*
X114528571Y-100465714D02*
X114528571Y-100165714D01*
X114600000Y-100165714D01*
X114642857Y-100180000D01*
X114671428Y-100208571D01*
X114685714Y-100237142D01*
X114700000Y-100294285D01*
X114700000Y-100337142D01*
X114685714Y-100394285D01*
X114671428Y-100422857D01*
X114642857Y-100451428D01*
X114600000Y-100465714D01*
X114528571Y-100465714D01*
D10*
X140521428Y-73767142D02*
X140307142Y-73695714D01*
X140235714Y-73624285D01*
X140164285Y-73481428D01*
X140164285Y-73267142D01*
X140235714Y-73124285D01*
X140307142Y-73052857D01*
X140450000Y-72981428D01*
X141021428Y-72981428D01*
X141021428Y-74481428D01*
X140521428Y-74481428D01*
X140378571Y-74410000D01*
X140307142Y-74338571D01*
X140235714Y-74195714D01*
X140235714Y-74052857D01*
X140307142Y-73910000D01*
X140378571Y-73838571D01*
X140521428Y-73767142D01*
X141021428Y-73767142D01*
X139521428Y-73552857D02*
X138378571Y-73552857D01*
X138950000Y-72981428D02*
X138950000Y-74124285D01*
X102778571Y-78061428D02*
X102778571Y-79561428D01*
X102421428Y-79561428D01*
X102207142Y-79490000D01*
X102064285Y-79347142D01*
X101992857Y-79204285D01*
X101921428Y-78918571D01*
X101921428Y-78704285D01*
X101992857Y-78418571D01*
X102064285Y-78275714D01*
X102207142Y-78132857D01*
X102421428Y-78061428D01*
X102778571Y-78061428D01*
X100992857Y-79561428D02*
X100707142Y-79561428D01*
X100564285Y-79490000D01*
X100421428Y-79347142D01*
X100350000Y-79061428D01*
X100350000Y-78561428D01*
X100421428Y-78275714D01*
X100564285Y-78132857D01*
X100707142Y-78061428D01*
X100992857Y-78061428D01*
X101135714Y-78132857D01*
X101278571Y-78275714D01*
X101350000Y-78561428D01*
X101350000Y-79061428D01*
X101278571Y-79347142D01*
X101135714Y-79490000D01*
X100992857Y-79561428D01*
X140985714Y-81030000D02*
X140271428Y-81030000D01*
X141128571Y-80601428D02*
X140628571Y-82101428D01*
X140128571Y-80601428D01*
X139628571Y-81172857D02*
X138485714Y-81172857D01*
X102742857Y-74410000D02*
X102885714Y-74481428D01*
X103100000Y-74481428D01*
X103314285Y-74410000D01*
X103457142Y-74267142D01*
X103528571Y-74124285D01*
X103600000Y-73838571D01*
X103600000Y-73624285D01*
X103528571Y-73338571D01*
X103457142Y-73195714D01*
X103314285Y-73052857D01*
X103100000Y-72981428D01*
X102957142Y-72981428D01*
X102742857Y-73052857D01*
X102671428Y-73124285D01*
X102671428Y-73624285D01*
X102957142Y-73624285D01*
X102028571Y-72981428D02*
X102028571Y-74481428D01*
X101171428Y-72981428D01*
X101171428Y-74481428D01*
X100457142Y-72981428D02*
X100457142Y-74481428D01*
X100100000Y-74481428D01*
X99885714Y-74410000D01*
X99742857Y-74267142D01*
X99671428Y-74124285D01*
X99600000Y-73838571D01*
X99600000Y-73624285D01*
X99671428Y-73338571D01*
X99742857Y-73195714D01*
X99885714Y-73052857D01*
X100100000Y-72981428D01*
X100457142Y-72981428D01*
D11*
X120435714Y-102226285D02*
X120450000Y-102212000D01*
X120478571Y-102197714D01*
X120550000Y-102197714D01*
X120578571Y-102212000D01*
X120592857Y-102226285D01*
X120607142Y-102254857D01*
X120607142Y-102283428D01*
X120592857Y-102326285D01*
X120421428Y-102497714D01*
X120607142Y-102497714D01*
X120721428Y-102412000D02*
X120864285Y-102412000D01*
X120692857Y-102497714D02*
X120792857Y-102197714D01*
X120892857Y-102497714D01*
X120414285Y-104766285D02*
X120428571Y-104752000D01*
X120457142Y-104737714D01*
X120528571Y-104737714D01*
X120557142Y-104752000D01*
X120571428Y-104766285D01*
X120585714Y-104794857D01*
X120585714Y-104823428D01*
X120571428Y-104866285D01*
X120400000Y-105037714D01*
X120585714Y-105037714D01*
X120814285Y-104880571D02*
X120857142Y-104894857D01*
X120871428Y-104909142D01*
X120885714Y-104937714D01*
X120885714Y-104980571D01*
X120871428Y-105009142D01*
X120857142Y-105023428D01*
X120828571Y-105037714D01*
X120714285Y-105037714D01*
X120714285Y-104737714D01*
X120814285Y-104737714D01*
X120842857Y-104752000D01*
X120857142Y-104766285D01*
X120871428Y-104794857D01*
X120871428Y-104823428D01*
X120857142Y-104852000D01*
X120842857Y-104866285D01*
X120814285Y-104880571D01*
X120714285Y-104880571D01*
X114071428Y-102720000D02*
X114042857Y-102705714D01*
X114000000Y-102705714D01*
X113957142Y-102720000D01*
X113928571Y-102748571D01*
X113914285Y-102777142D01*
X113900000Y-102834285D01*
X113900000Y-102877142D01*
X113914285Y-102934285D01*
X113928571Y-102962857D01*
X113957142Y-102991428D01*
X114000000Y-103005714D01*
X114028571Y-103005714D01*
X114071428Y-102991428D01*
X114085714Y-102977142D01*
X114085714Y-102877142D01*
X114028571Y-102877142D01*
X114214285Y-103005714D02*
X114214285Y-102705714D01*
X114385714Y-103005714D01*
X114385714Y-102705714D01*
X114528571Y-103005714D02*
X114528571Y-102705714D01*
X114600000Y-102705714D01*
X114642857Y-102720000D01*
X114671428Y-102748571D01*
X114685714Y-102777142D01*
X114700000Y-102834285D01*
X114700000Y-102877142D01*
X114685714Y-102934285D01*
X114671428Y-102962857D01*
X114642857Y-102991428D01*
X114600000Y-103005714D01*
X114528571Y-103005714D01*
X106451428Y-90020000D02*
X106422857Y-90005714D01*
X106380000Y-90005714D01*
X106337142Y-90020000D01*
X106308571Y-90048571D01*
X106294285Y-90077142D01*
X106280000Y-90134285D01*
X106280000Y-90177142D01*
X106294285Y-90234285D01*
X106308571Y-90262857D01*
X106337142Y-90291428D01*
X106380000Y-90305714D01*
X106408571Y-90305714D01*
X106451428Y-90291428D01*
X106465714Y-90277142D01*
X106465714Y-90177142D01*
X106408571Y-90177142D01*
X106594285Y-90305714D02*
X106594285Y-90005714D01*
X106765714Y-90305714D01*
X106765714Y-90005714D01*
X106908571Y-90305714D02*
X106908571Y-90005714D01*
X106980000Y-90005714D01*
X107022857Y-90020000D01*
X107051428Y-90048571D01*
X107065714Y-90077142D01*
X107080000Y-90134285D01*
X107080000Y-90177142D01*
X107065714Y-90234285D01*
X107051428Y-90262857D01*
X107022857Y-90291428D01*
X106980000Y-90305714D01*
X106908571Y-90305714D01*
D10*
X150471428Y-104818571D02*
X150471428Y-103318571D01*
X150971428Y-104390000D01*
X151471428Y-103318571D01*
X151471428Y-104818571D01*
X152114285Y-104747142D02*
X152328571Y-104818571D01*
X152685714Y-104818571D01*
X152828571Y-104747142D01*
X152900000Y-104675714D01*
X152971428Y-104532857D01*
X152971428Y-104390000D01*
X152900000Y-104247142D01*
X152828571Y-104175714D01*
X152685714Y-104104285D01*
X152400000Y-104032857D01*
X152257142Y-103961428D01*
X152185714Y-103890000D01*
X152114285Y-103747142D01*
X152114285Y-103604285D01*
X152185714Y-103461428D01*
X152257142Y-103390000D01*
X152400000Y-103318571D01*
X152757142Y-103318571D01*
X152971428Y-103390000D01*
X153471428Y-103318571D02*
X154400000Y-103318571D01*
X153900000Y-103890000D01*
X154114285Y-103890000D01*
X154257142Y-103961428D01*
X154328571Y-104032857D01*
X154400000Y-104175714D01*
X154400000Y-104532857D01*
X154328571Y-104675714D01*
X154257142Y-104747142D01*
X154114285Y-104818571D01*
X153685714Y-104818571D01*
X153542857Y-104747142D01*
X153471428Y-104675714D01*
D11*
X122790000Y-110833714D02*
X122890000Y-111133714D01*
X122990000Y-110833714D01*
X123090000Y-111133714D02*
X123090000Y-110833714D01*
X123161428Y-110833714D01*
X123204285Y-110848000D01*
X123232857Y-110876571D01*
X123247142Y-110905142D01*
X123261428Y-110962285D01*
X123261428Y-111005142D01*
X123247142Y-111062285D01*
X123232857Y-111090857D01*
X123204285Y-111119428D01*
X123161428Y-111133714D01*
X123090000Y-111133714D01*
X123390000Y-111133714D02*
X123390000Y-110833714D01*
X123461428Y-110833714D01*
X123504285Y-110848000D01*
X123532857Y-110876571D01*
X123547142Y-110905142D01*
X123561428Y-110962285D01*
X123561428Y-111005142D01*
X123547142Y-111062285D01*
X123532857Y-111090857D01*
X123504285Y-111119428D01*
X123461428Y-111133714D01*
X123390000Y-111133714D01*
X111702216Y-100165713D02*
X111559359Y-100165713D01*
X111545073Y-100308570D01*
X111559359Y-100294284D01*
X111587930Y-100279999D01*
X111659359Y-100279999D01*
X111687930Y-100294284D01*
X111702216Y-100308570D01*
X111716501Y-100337141D01*
X111716501Y-100408570D01*
X111702216Y-100437141D01*
X111687930Y-100451427D01*
X111659359Y-100465713D01*
X111587930Y-100465713D01*
X111559359Y-100451427D01*
X111545073Y-100437141D01*
X111802216Y-100165713D02*
X111902216Y-100465713D01*
X112002216Y-100165713D01*
X120607142Y-99957714D02*
X120435714Y-99957714D01*
X120521428Y-99957714D02*
X120521428Y-99657714D01*
X120492857Y-99700571D01*
X120464285Y-99729142D01*
X120435714Y-99743428D01*
X120721428Y-99872000D02*
X120864285Y-99872000D01*
X120692857Y-99957714D02*
X120792857Y-99657714D01*
X120892857Y-99957714D01*
X110254285Y-104275714D02*
X110254285Y-103975714D01*
X110325714Y-103975714D01*
X110368571Y-103990000D01*
X110397142Y-104018571D01*
X110411428Y-104047142D01*
X110425714Y-104104285D01*
X110425714Y-104147142D01*
X110411428Y-104204285D01*
X110397142Y-104232857D01*
X110368571Y-104261428D01*
X110325714Y-104275714D01*
X110254285Y-104275714D01*
X110611428Y-103975714D02*
X110668571Y-103975714D01*
X110697142Y-103990000D01*
X110725714Y-104018571D01*
X110740000Y-104075714D01*
X110740000Y-104175714D01*
X110725714Y-104232857D01*
X110697142Y-104261428D01*
X110668571Y-104275714D01*
X110611428Y-104275714D01*
X110582857Y-104261428D01*
X110554285Y-104232857D01*
X110540000Y-104175714D01*
X110540000Y-104075714D01*
X110554285Y-104018571D01*
X110582857Y-103990000D01*
X110611428Y-103975714D01*
X148332857Y-77012000D02*
X148475714Y-77012000D01*
X148304285Y-77097714D02*
X148404285Y-76797714D01*
X148504285Y-77097714D01*
X148604285Y-76983428D02*
X148832857Y-76983428D01*
X148053485Y-84595514D02*
X148110628Y-84595514D01*
X148139200Y-84609800D01*
X148167771Y-84638371D01*
X148182057Y-84695514D01*
X148182057Y-84795514D01*
X148167771Y-84852657D01*
X148139200Y-84881228D01*
X148110628Y-84895514D01*
X148053485Y-84895514D01*
X148024914Y-84881228D01*
X147996342Y-84852657D01*
X147982057Y-84795514D01*
X147982057Y-84695514D01*
X147996342Y-84638371D01*
X148024914Y-84609800D01*
X148053485Y-84595514D01*
X148310628Y-84595514D02*
X148310628Y-84838371D01*
X148324914Y-84866942D01*
X148339200Y-84881228D01*
X148367771Y-84895514D01*
X148424914Y-84895514D01*
X148453485Y-84881228D01*
X148467771Y-84866942D01*
X148482057Y-84838371D01*
X148482057Y-84595514D01*
X148582057Y-84595514D02*
X148753485Y-84595514D01*
X148667771Y-84895514D02*
X148667771Y-84595514D01*
X148853485Y-84781228D02*
X149082057Y-84781228D01*
X148967771Y-84895514D02*
X148967771Y-84666942D01*
D10*
X128361428Y-106001428D02*
X128432857Y-105930000D01*
X128575714Y-105858571D01*
X128932857Y-105858571D01*
X129075714Y-105930000D01*
X129147142Y-106001428D01*
X129218571Y-106144285D01*
X129218571Y-106287142D01*
X129147142Y-106501428D01*
X128290000Y-107358571D01*
X129218571Y-107358571D01*
X130361428Y-106572857D02*
X130575714Y-106644285D01*
X130647142Y-106715714D01*
X130718571Y-106858571D01*
X130718571Y-107072857D01*
X130647142Y-107215714D01*
X130575714Y-107287142D01*
X130432857Y-107358571D01*
X129861428Y-107358571D01*
X129861428Y-105858571D01*
X130361428Y-105858571D01*
X130504285Y-105930000D01*
X130575714Y-106001428D01*
X130647142Y-106144285D01*
X130647142Y-106287142D01*
X130575714Y-106430000D01*
X130504285Y-106501428D01*
X130361428Y-106572857D01*
X129861428Y-106572857D01*
D11*
X120585714Y-97925714D02*
X120414285Y-97925714D01*
X120500000Y-97925714D02*
X120500000Y-97625714D01*
X120471428Y-97668571D01*
X120442857Y-97697142D01*
X120414285Y-97711428D01*
X120814285Y-97768571D02*
X120857142Y-97782857D01*
X120871428Y-97797142D01*
X120885714Y-97825714D01*
X120885714Y-97868571D01*
X120871428Y-97897142D01*
X120857142Y-97911428D01*
X120828571Y-97925714D01*
X120714285Y-97925714D01*
X120714285Y-97625714D01*
X120814285Y-97625714D01*
X120842857Y-97640000D01*
X120857142Y-97654285D01*
X120871428Y-97682857D01*
X120871428Y-97711428D01*
X120857142Y-97740000D01*
X120842857Y-97754285D01*
X120814285Y-97768571D01*
X120714285Y-97768571D01*
X106601428Y-95385714D02*
X106601428Y-95085714D01*
X106672857Y-95085714D01*
X106715714Y-95100000D01*
X106744285Y-95128571D01*
X106758571Y-95157142D01*
X106772857Y-95214285D01*
X106772857Y-95257142D01*
X106758571Y-95314285D01*
X106744285Y-95342857D01*
X106715714Y-95371428D01*
X106672857Y-95385714D01*
X106601428Y-95385714D01*
D10*
X142128571Y-84641428D02*
X141842857Y-84641428D01*
X141700000Y-84570000D01*
X141557142Y-84427142D01*
X141485714Y-84141428D01*
X141485714Y-83641428D01*
X141557142Y-83355714D01*
X141700000Y-83212857D01*
X141842857Y-83141428D01*
X142128571Y-83141428D01*
X142271428Y-83212857D01*
X142414285Y-83355714D01*
X142485714Y-83641428D01*
X142485714Y-84141428D01*
X142414285Y-84427142D01*
X142271428Y-84570000D01*
X142128571Y-84641428D01*
X140842857Y-84641428D02*
X140842857Y-83427142D01*
X140771428Y-83284285D01*
X140700000Y-83212857D01*
X140557142Y-83141428D01*
X140271428Y-83141428D01*
X140128571Y-83212857D01*
X140057142Y-83284285D01*
X139985714Y-83427142D01*
X139985714Y-84641428D01*
X139485714Y-84641428D02*
X138628571Y-84641428D01*
X139057142Y-83141428D02*
X139057142Y-84641428D01*
X138128571Y-83712857D02*
X136985714Y-83712857D01*
X137557142Y-83141428D02*
X137557142Y-84284285D01*
D12*
%TO.C,REF1*%
X138652380Y-114752380D02*
X138319047Y-114276190D01*
X138080952Y-114752380D02*
X138080952Y-113752380D01*
X138461904Y-113752380D01*
X138557142Y-113800000D01*
X138604761Y-113847619D01*
X138652380Y-113942857D01*
X138652380Y-114085714D01*
X138604761Y-114180952D01*
X138557142Y-114228571D01*
X138461904Y-114276190D01*
X138080952Y-114276190D01*
X139080952Y-114228571D02*
X139414285Y-114228571D01*
X139557142Y-114752380D02*
X139080952Y-114752380D01*
X139080952Y-113752380D01*
X139557142Y-113752380D01*
X140319047Y-114228571D02*
X139985714Y-114228571D01*
X139985714Y-114752380D02*
X139985714Y-113752380D01*
X140461904Y-113752380D01*
X141366666Y-114752380D02*
X140795238Y-114752380D01*
X141080952Y-114752380D02*
X141080952Y-113752380D01*
X140985714Y-113895238D01*
X140890476Y-113990476D01*
X140795238Y-114038095D01*
%TO.C,REF9*%
X152292180Y-75966580D02*
X151958847Y-75490390D01*
X151720752Y-75966580D02*
X151720752Y-74966580D01*
X152101704Y-74966580D01*
X152196942Y-75014200D01*
X152244561Y-75061819D01*
X152292180Y-75157057D01*
X152292180Y-75299914D01*
X152244561Y-75395152D01*
X152196942Y-75442771D01*
X152101704Y-75490390D01*
X151720752Y-75490390D01*
X152720752Y-75442771D02*
X153054085Y-75442771D01*
X153196942Y-75966580D02*
X152720752Y-75966580D01*
X152720752Y-74966580D01*
X153196942Y-74966580D01*
X153958847Y-75442771D02*
X153625514Y-75442771D01*
X153625514Y-75966580D02*
X153625514Y-74966580D01*
X154101704Y-74966580D01*
X154530276Y-75966580D02*
X154720752Y-75966580D01*
X154815990Y-75918961D01*
X154863609Y-75871342D01*
X154958847Y-75728485D01*
X155006466Y-75538009D01*
X155006466Y-75157057D01*
X154958847Y-75061819D01*
X154911228Y-75014200D01*
X154815990Y-74966580D01*
X154625514Y-74966580D01*
X154530276Y-75014200D01*
X154482657Y-75061819D01*
X154435038Y-75157057D01*
X154435038Y-75395152D01*
X154482657Y-75490390D01*
X154530276Y-75538009D01*
X154625514Y-75585628D01*
X154815990Y-75585628D01*
X154911228Y-75538009D01*
X154958847Y-75490390D01*
X155006466Y-75395152D01*
%TO.C,REF10*%
X146304190Y-117292380D02*
X145970857Y-116816190D01*
X145732761Y-117292380D02*
X145732761Y-116292380D01*
X146113714Y-116292380D01*
X146208952Y-116340000D01*
X146256571Y-116387619D01*
X146304190Y-116482857D01*
X146304190Y-116625714D01*
X146256571Y-116720952D01*
X146208952Y-116768571D01*
X146113714Y-116816190D01*
X145732761Y-116816190D01*
X146732761Y-116768571D02*
X147066095Y-116768571D01*
X147208952Y-117292380D02*
X146732761Y-117292380D01*
X146732761Y-116292380D01*
X147208952Y-116292380D01*
X147970857Y-116768571D02*
X147637523Y-116768571D01*
X147637523Y-117292380D02*
X147637523Y-116292380D01*
X148113714Y-116292380D01*
X149018476Y-117292380D02*
X148447047Y-117292380D01*
X148732761Y-117292380D02*
X148732761Y-116292380D01*
X148637523Y-116435238D01*
X148542285Y-116530476D01*
X148447047Y-116578095D01*
X149637523Y-116292380D02*
X149732761Y-116292380D01*
X149828000Y-116340000D01*
X149875619Y-116387619D01*
X149923238Y-116482857D01*
X149970857Y-116673333D01*
X149970857Y-116911428D01*
X149923238Y-117101904D01*
X149875619Y-117197142D01*
X149828000Y-117244761D01*
X149732761Y-117292380D01*
X149637523Y-117292380D01*
X149542285Y-117244761D01*
X149494666Y-117197142D01*
X149447047Y-117101904D01*
X149399428Y-116911428D01*
X149399428Y-116673333D01*
X149447047Y-116482857D01*
X149494666Y-116387619D01*
X149542285Y-116340000D01*
X149637523Y-116292380D01*
%TO.C,REF8*%
X146272380Y-71572380D02*
X145939047Y-71096190D01*
X145700952Y-71572380D02*
X145700952Y-70572380D01*
X146081904Y-70572380D01*
X146177142Y-70620000D01*
X146224761Y-70667619D01*
X146272380Y-70762857D01*
X146272380Y-70905714D01*
X146224761Y-71000952D01*
X146177142Y-71048571D01*
X146081904Y-71096190D01*
X145700952Y-71096190D01*
X146700952Y-71048571D02*
X147034285Y-71048571D01*
X147177142Y-71572380D02*
X146700952Y-71572380D01*
X146700952Y-70572380D01*
X147177142Y-70572380D01*
X147939047Y-71048571D02*
X147605714Y-71048571D01*
X147605714Y-71572380D02*
X147605714Y-70572380D01*
X148081904Y-70572380D01*
X148605714Y-71000952D02*
X148510476Y-70953333D01*
X148462857Y-70905714D01*
X148415238Y-70810476D01*
X148415238Y-70762857D01*
X148462857Y-70667619D01*
X148510476Y-70620000D01*
X148605714Y-70572380D01*
X148796190Y-70572380D01*
X148891428Y-70620000D01*
X148939047Y-70667619D01*
X148986666Y-70762857D01*
X148986666Y-70810476D01*
X148939047Y-70905714D01*
X148891428Y-70953333D01*
X148796190Y-71000952D01*
X148605714Y-71000952D01*
X148510476Y-71048571D01*
X148462857Y-71096190D01*
X148415238Y-71191428D01*
X148415238Y-71381904D01*
X148462857Y-71477142D01*
X148510476Y-71524761D01*
X148605714Y-71572380D01*
X148796190Y-71572380D01*
X148891428Y-71524761D01*
X148939047Y-71477142D01*
X148986666Y-71381904D01*
X148986666Y-71191428D01*
X148939047Y-71096190D01*
X148891428Y-71048571D01*
X148796190Y-71000952D01*
%TO.C,REF3*%
X120872380Y-114752380D02*
X120539047Y-114276190D01*
X120300952Y-114752380D02*
X120300952Y-113752380D01*
X120681904Y-113752380D01*
X120777142Y-113800000D01*
X120824761Y-113847619D01*
X120872380Y-113942857D01*
X120872380Y-114085714D01*
X120824761Y-114180952D01*
X120777142Y-114228571D01*
X120681904Y-114276190D01*
X120300952Y-114276190D01*
X121300952Y-114228571D02*
X121634285Y-114228571D01*
X121777142Y-114752380D02*
X121300952Y-114752380D01*
X121300952Y-113752380D01*
X121777142Y-113752380D01*
X122539047Y-114228571D02*
X122205714Y-114228571D01*
X122205714Y-114752380D02*
X122205714Y-113752380D01*
X122681904Y-113752380D01*
X122967619Y-113752380D02*
X123586666Y-113752380D01*
X123253333Y-114133333D01*
X123396190Y-114133333D01*
X123491428Y-114180952D01*
X123539047Y-114228571D01*
X123586666Y-114323809D01*
X123586666Y-114561904D01*
X123539047Y-114657142D01*
X123491428Y-114704761D01*
X123396190Y-114752380D01*
X123110476Y-114752380D01*
X123015238Y-114704761D01*
X122967619Y-114657142D01*
%TO.C,REF11*%
X97536190Y-110552380D02*
X97202857Y-110076190D01*
X96964761Y-110552380D02*
X96964761Y-109552380D01*
X97345714Y-109552380D01*
X97440952Y-109600000D01*
X97488571Y-109647619D01*
X97536190Y-109742857D01*
X97536190Y-109885714D01*
X97488571Y-109980952D01*
X97440952Y-110028571D01*
X97345714Y-110076190D01*
X96964761Y-110076190D01*
X97964761Y-110028571D02*
X98298095Y-110028571D01*
X98440952Y-110552380D02*
X97964761Y-110552380D01*
X97964761Y-109552380D01*
X98440952Y-109552380D01*
X99202857Y-110028571D02*
X98869523Y-110028571D01*
X98869523Y-110552380D02*
X98869523Y-109552380D01*
X99345714Y-109552380D01*
X100250476Y-110552380D02*
X99679047Y-110552380D01*
X99964761Y-110552380D02*
X99964761Y-109552380D01*
X99869523Y-109695238D01*
X99774285Y-109790476D01*
X99679047Y-109838095D01*
X101202857Y-110552380D02*
X100631428Y-110552380D01*
X100917142Y-110552380D02*
X100917142Y-109552380D01*
X100821904Y-109695238D01*
X100726666Y-109790476D01*
X100631428Y-109838095D01*
%TO.C,REF4*%
X120872380Y-94432380D02*
X120539047Y-93956190D01*
X120300952Y-94432380D02*
X120300952Y-93432380D01*
X120681904Y-93432380D01*
X120777142Y-93480000D01*
X120824761Y-93527619D01*
X120872380Y-93622857D01*
X120872380Y-93765714D01*
X120824761Y-93860952D01*
X120777142Y-93908571D01*
X120681904Y-93956190D01*
X120300952Y-93956190D01*
X121300952Y-93908571D02*
X121634285Y-93908571D01*
X121777142Y-94432380D02*
X121300952Y-94432380D01*
X121300952Y-93432380D01*
X121777142Y-93432380D01*
X122539047Y-93908571D02*
X122205714Y-93908571D01*
X122205714Y-94432380D02*
X122205714Y-93432380D01*
X122681904Y-93432380D01*
X123491428Y-93765714D02*
X123491428Y-94432380D01*
X123253333Y-93384761D02*
X123015238Y-94099047D01*
X123634285Y-94099047D01*
%TO.C,REF2*%
X120427619Y-88447619D02*
X120760952Y-88923809D01*
X120999047Y-88447619D02*
X120999047Y-89447619D01*
X120618095Y-89447619D01*
X120522857Y-89400000D01*
X120475238Y-89352380D01*
X120427619Y-89257142D01*
X120427619Y-89114285D01*
X120475238Y-89019047D01*
X120522857Y-88971428D01*
X120618095Y-88923809D01*
X120999047Y-88923809D01*
X119999047Y-88971428D02*
X119665714Y-88971428D01*
X119522857Y-88447619D02*
X119999047Y-88447619D01*
X119999047Y-89447619D01*
X119522857Y-89447619D01*
X118760952Y-88971428D02*
X119094285Y-88971428D01*
X119094285Y-88447619D02*
X119094285Y-89447619D01*
X118618095Y-89447619D01*
X118284761Y-89352380D02*
X118237142Y-89400000D01*
X118141904Y-89447619D01*
X117903809Y-89447619D01*
X117808571Y-89400000D01*
X117760952Y-89352380D01*
X117713333Y-89257142D01*
X117713333Y-89161904D01*
X117760952Y-89019047D01*
X118332380Y-88447619D01*
X117713333Y-88447619D01*
%TO.C,REF12*%
X96443990Y-75966580D02*
X96110657Y-75490390D01*
X95872561Y-75966580D02*
X95872561Y-74966580D01*
X96253514Y-74966580D01*
X96348752Y-75014200D01*
X96396371Y-75061819D01*
X96443990Y-75157057D01*
X96443990Y-75299914D01*
X96396371Y-75395152D01*
X96348752Y-75442771D01*
X96253514Y-75490390D01*
X95872561Y-75490390D01*
X96872561Y-75442771D02*
X97205895Y-75442771D01*
X97348752Y-75966580D02*
X96872561Y-75966580D01*
X96872561Y-74966580D01*
X97348752Y-74966580D01*
X98110657Y-75442771D02*
X97777323Y-75442771D01*
X97777323Y-75966580D02*
X97777323Y-74966580D01*
X98253514Y-74966580D01*
X99158276Y-75966580D02*
X98586847Y-75966580D01*
X98872561Y-75966580D02*
X98872561Y-74966580D01*
X98777323Y-75109438D01*
X98682085Y-75204676D01*
X98586847Y-75252295D01*
X99539228Y-75061819D02*
X99586847Y-75014200D01*
X99682085Y-74966580D01*
X99920180Y-74966580D01*
X100015419Y-75014200D01*
X100063038Y-75061819D01*
X100110657Y-75157057D01*
X100110657Y-75252295D01*
X100063038Y-75395152D01*
X99491609Y-75966580D01*
X100110657Y-75966580D01*
%TO.C,REF6*%
X105632380Y-96972380D02*
X105299047Y-96496190D01*
X105060952Y-96972380D02*
X105060952Y-95972380D01*
X105441904Y-95972380D01*
X105537142Y-96020000D01*
X105584761Y-96067619D01*
X105632380Y-96162857D01*
X105632380Y-96305714D01*
X105584761Y-96400952D01*
X105537142Y-96448571D01*
X105441904Y-96496190D01*
X105060952Y-96496190D01*
X106060952Y-96448571D02*
X106394285Y-96448571D01*
X106537142Y-96972380D02*
X106060952Y-96972380D01*
X106060952Y-95972380D01*
X106537142Y-95972380D01*
X107299047Y-96448571D02*
X106965714Y-96448571D01*
X106965714Y-96972380D02*
X106965714Y-95972380D01*
X107441904Y-95972380D01*
X108251428Y-95972380D02*
X108060952Y-95972380D01*
X107965714Y-96020000D01*
X107918095Y-96067619D01*
X107822857Y-96210476D01*
X107775238Y-96400952D01*
X107775238Y-96781904D01*
X107822857Y-96877142D01*
X107870476Y-96924761D01*
X107965714Y-96972380D01*
X108156190Y-96972380D01*
X108251428Y-96924761D01*
X108299047Y-96877142D01*
X108346666Y-96781904D01*
X108346666Y-96543809D01*
X108299047Y-96448571D01*
X108251428Y-96400952D01*
X108156190Y-96353333D01*
X107965714Y-96353333D01*
X107870476Y-96400952D01*
X107822857Y-96448571D01*
X107775238Y-96543809D01*
%TO.C,REF5*%
X113252380Y-96972380D02*
X112919047Y-96496190D01*
X112680952Y-96972380D02*
X112680952Y-95972380D01*
X113061904Y-95972380D01*
X113157142Y-96020000D01*
X113204761Y-96067619D01*
X113252380Y-96162857D01*
X113252380Y-96305714D01*
X113204761Y-96400952D01*
X113157142Y-96448571D01*
X113061904Y-96496190D01*
X112680952Y-96496190D01*
X113680952Y-96448571D02*
X114014285Y-96448571D01*
X114157142Y-96972380D02*
X113680952Y-96972380D01*
X113680952Y-95972380D01*
X114157142Y-95972380D01*
X114919047Y-96448571D02*
X114585714Y-96448571D01*
X114585714Y-96972380D02*
X114585714Y-95972380D01*
X115061904Y-95972380D01*
X115919047Y-95972380D02*
X115442857Y-95972380D01*
X115395238Y-96448571D01*
X115442857Y-96400952D01*
X115538095Y-96353333D01*
X115776190Y-96353333D01*
X115871428Y-96400952D01*
X115919047Y-96448571D01*
X115966666Y-96543809D01*
X115966666Y-96781904D01*
X115919047Y-96877142D01*
X115871428Y-96924761D01*
X115776190Y-96972380D01*
X115538095Y-96972380D01*
X115442857Y-96924761D01*
X115395238Y-96877142D01*
%TO.C,REF7*%
X146272380Y-86812380D02*
X145939047Y-86336190D01*
X145700952Y-86812380D02*
X145700952Y-85812380D01*
X146081904Y-85812380D01*
X146177142Y-85860000D01*
X146224761Y-85907619D01*
X146272380Y-86002857D01*
X146272380Y-86145714D01*
X146224761Y-86240952D01*
X146177142Y-86288571D01*
X146081904Y-86336190D01*
X145700952Y-86336190D01*
X146700952Y-86288571D02*
X147034285Y-86288571D01*
X147177142Y-86812380D02*
X146700952Y-86812380D01*
X146700952Y-85812380D01*
X147177142Y-85812380D01*
X147939047Y-86288571D02*
X147605714Y-86288571D01*
X147605714Y-86812380D02*
X147605714Y-85812380D01*
X148081904Y-85812380D01*
X148367619Y-85812380D02*
X149034285Y-85812380D01*
X148605714Y-86812380D01*
D13*
%TO.C,REF1*%
X148590000Y-113030000D02*
X133350000Y-113030000D01*
X148590000Y-92710000D02*
X148590000Y-113030000D01*
X133350000Y-92710000D02*
X148590000Y-92710000D01*
X133350000Y-113030000D02*
X133350000Y-92710000D01*
D14*
X132670000Y-93420000D02*
G75*
G03*
X132670000Y-93420000I-100000J0D01*
G01*
D13*
%TO.C,REF8*%
X149225000Y-77470000D02*
X145415000Y-77470000D01*
X145415000Y-72390000D02*
X149225000Y-72390000D01*
X149225000Y-72390000D02*
X149225000Y-77470000D01*
X145415000Y-77470000D02*
X145415000Y-72390000D01*
%TO.C,REF3*%
X123825000Y-107950000D02*
X123825000Y-113030000D01*
X123825000Y-113030000D02*
X120015000Y-113030000D01*
X120015000Y-113030000D02*
X120015000Y-107950000D01*
X120015000Y-107950000D02*
X123825000Y-107950000D01*
%TO.C,REF4*%
X123836725Y-95136794D02*
X123836725Y-105423794D01*
X120026725Y-105423794D02*
X120026725Y-95136794D01*
X123836725Y-105423794D02*
X120026725Y-105423794D01*
X120026725Y-95136794D02*
X123836725Y-95136794D01*
%TO.C,REF2*%
X134366000Y-68834000D02*
X134370000Y-86360000D01*
X104140000Y-68834000D02*
X134366000Y-68834000D01*
X134370000Y-86360000D02*
X104140000Y-86360000D01*
X104140000Y-86360000D02*
X104140000Y-68834000D01*
D14*
X135250000Y-85650000D02*
G75*
G03*
X135250000Y-85650000I-100000J0D01*
G01*
D13*
%TO.C,REF6*%
X108585000Y-87503000D02*
X108585000Y-95631000D01*
X108585000Y-95631000D02*
X104775000Y-95631000D01*
X104775000Y-87503000D02*
X108585000Y-87503000D01*
X104775000Y-95631000D02*
X104775000Y-87503000D01*
%TO.C,REF5*%
X119126000Y-105410000D02*
X106684000Y-105410000D01*
X106684000Y-105410000D02*
X106680000Y-97790000D01*
X119126000Y-97790000D02*
X119126000Y-105410000D01*
X106680000Y-97790000D02*
X119126000Y-97790000D01*
%TO.C,REF7*%
X149225000Y-80010000D02*
X149225000Y-85090000D01*
X145415000Y-85090000D02*
X145415000Y-80010000D01*
X149225000Y-85090000D02*
X145415000Y-85090000D01*
X145415000Y-80010000D02*
X149225000Y-80010000D01*
%TD*%
M02*
