%TF.GenerationSoftware,KiCad,Pcbnew,(6.0.2)*%
%TF.CreationDate,2023-07-03T16:13:51+01:00*%
%TF.ProjectId,Stretchy,53747265-7463-4687-992e-6b696361645f,rev?*%
%TF.SameCoordinates,Original*%
%TF.FileFunction,Copper,L1,Top*%
%TF.FilePolarity,Positive*%
%FSLAX46Y46*%
G04 Gerber Fmt 4.6, Leading zero omitted, Abs format (unit mm)*
G04 Created by KiCad (PCBNEW (6.0.2)) date 2023-07-03 16:13:51*
%MOMM*%
%LPD*%
G01*
G04 APERTURE LIST*
%TA.AperFunction,ComponentPad*%
%ADD10R,1.530000X1.530000*%
%TD*%
%TA.AperFunction,ComponentPad*%
%ADD11C,1.530000*%
%TD*%
%TA.AperFunction,Conductor*%
%ADD12C,0.500000*%
%TD*%
G04 APERTURE END LIST*
D10*
%TO.P,REF1,1*%
%TO.N,N/C*%
X134620000Y-93980000D03*
D11*
%TO.P,REF1,2*%
X134620000Y-96520000D03*
%TO.P,REF1,3*%
X134620000Y-99060000D03*
%TO.P,REF1,4*%
X134620000Y-101600000D03*
%TO.P,REF1,5*%
X134620000Y-104140000D03*
%TO.P,REF1,6*%
X134620000Y-106680000D03*
%TO.P,REF1,7*%
X134620000Y-109220000D03*
%TO.P,REF1,8*%
X134620000Y-111760000D03*
%TO.P,REF1,9*%
X147320000Y-111760000D03*
%TO.P,REF1,10*%
X147320000Y-109220000D03*
%TO.P,REF1,11*%
X147320000Y-106680000D03*
%TO.P,REF1,12*%
X147320000Y-104140000D03*
%TO.P,REF1,13*%
X147320000Y-101600000D03*
%TO.P,REF1,14*%
X147320000Y-99060000D03*
%TO.P,REF1,15*%
X147320000Y-96520000D03*
%TO.P,REF1,16*%
X147320000Y-93980000D03*
%TD*%
D10*
%TO.P,REF8,1*%
%TO.N,N/C*%
X147320000Y-73660000D03*
D11*
%TO.P,REF8,2*%
X147320000Y-76200000D03*
%TD*%
D10*
%TO.P,REF3,1*%
%TO.N,N/C*%
X121920000Y-109220000D03*
D11*
%TO.P,REF3,2*%
X121920000Y-111760000D03*
%TD*%
D10*
%TO.P,REF4,1*%
%TO.N,N/C*%
X121931725Y-96533794D03*
D11*
%TO.P,REF4,2*%
X121931725Y-99073794D03*
%TO.P,REF4,3*%
X121931725Y-101613794D03*
%TO.P,REF4,4*%
X121920000Y-104140000D03*
%TD*%
D10*
%TO.P,REF2,1*%
%TO.N,N/C*%
X132080000Y-83820000D03*
D11*
%TO.P,REF2,2*%
X132080000Y-81280000D03*
%TO.P,REF2,3*%
X132080000Y-78740000D03*
%TO.P,REF2,4*%
X132080000Y-76200000D03*
%TO.P,REF2,5*%
X132080000Y-73660000D03*
%TO.P,REF2,6*%
X132080000Y-71120000D03*
%TO.P,REF2,7*%
X106680000Y-73660000D03*
%TO.P,REF2,8*%
X106680000Y-76200000D03*
%TO.P,REF2,9*%
X106680000Y-78740000D03*
%TO.P,REF2,10*%
X106680000Y-81280000D03*
%TD*%
D10*
%TO.P,REF6,1*%
%TO.N,N/C*%
X106680000Y-88900000D03*
D11*
%TO.P,REF6,2*%
X106680000Y-91440000D03*
%TO.P,REF6,3*%
X106680000Y-93980000D03*
%TD*%
D10*
%TO.P,REF5,1*%
%TO.N,N/C*%
X109220000Y-99060000D03*
D11*
%TO.P,REF5,2*%
X111760000Y-99060000D03*
%TO.P,REF5,3*%
X114300000Y-99060000D03*
%TO.P,REF5,4*%
X116840000Y-99060000D03*
%TO.P,REF5,5*%
X109220000Y-101600000D03*
%TO.P,REF5,6*%
X111760000Y-101600000D03*
%TO.P,REF5,7*%
X114300000Y-101600000D03*
%TO.P,REF5,8*%
X116840000Y-101600000D03*
%TO.P,REF5,9*%
X109220000Y-104140000D03*
%TD*%
D10*
%TO.P,REF7,1*%
%TO.N,N/C*%
X147320000Y-81280000D03*
D11*
%TO.P,REF7,2*%
X147320000Y-83820000D03*
%TD*%
D12*
%TO.N,*%
X109220000Y-96520000D02*
X106680000Y-93980000D01*
X99060000Y-83820000D02*
X99060000Y-96520000D01*
X106680000Y-91440000D02*
X111760000Y-91440000D01*
X134620000Y-109220000D02*
X121920000Y-109220000D01*
X124457931Y-99060000D02*
X121931725Y-96533794D01*
X134620000Y-96520000D02*
X124460000Y-86360000D01*
X106680000Y-78740000D02*
X101600000Y-83820000D01*
X106680000Y-104140000D02*
X109220000Y-104140000D01*
X111760000Y-86360000D02*
X111760000Y-99060000D01*
X101600000Y-96520000D02*
X106680000Y-101600000D01*
X134620000Y-101600000D02*
X124457931Y-101600000D01*
X106680000Y-76200000D02*
X99060000Y-83820000D01*
X114300000Y-101600000D02*
X114300000Y-106680000D01*
X116840000Y-109220000D02*
X121920000Y-109220000D01*
X114300000Y-99060000D02*
X114300000Y-101600000D01*
X109220000Y-99060000D02*
X109220000Y-96520000D01*
X101600000Y-83820000D02*
X101600000Y-96520000D01*
X99060000Y-96520000D02*
X106680000Y-104140000D01*
X144780000Y-81280000D02*
X147320000Y-81280000D01*
X134620000Y-99060000D02*
X124457931Y-99060000D01*
X124457931Y-101600000D02*
X121931725Y-99073794D01*
X114300000Y-106680000D02*
X116840000Y-109220000D01*
X124457931Y-104140000D02*
X121931725Y-101613794D01*
X124460000Y-86360000D02*
X111760000Y-86360000D01*
X121920000Y-111760000D02*
X134620000Y-111760000D01*
X111760000Y-106680000D02*
X116840000Y-111760000D01*
X139700000Y-76200000D02*
X144780000Y-81280000D01*
X106680000Y-101600000D02*
X109220000Y-101600000D01*
X132080000Y-83820000D02*
X147320000Y-83820000D01*
X116840000Y-111760000D02*
X121920000Y-111760000D01*
X124460000Y-106680000D02*
X121920000Y-104140000D01*
X134620000Y-106680000D02*
X124460000Y-106680000D01*
X147320000Y-99060000D02*
X147320000Y-101600000D01*
X111760000Y-101600000D02*
X111760000Y-106680000D01*
X106680000Y-81280000D02*
X111760000Y-86360000D01*
X134620000Y-104140000D02*
X124457931Y-104140000D01*
X132080000Y-76200000D02*
X139700000Y-76200000D01*
%TD*%
M02*
