M48
; DRILL file {KiCad (6.0.2)} date Mon Jul  3 16:13:55 2023
; FORMAT={-:-/ absolute / inch / decimal}
; #@! TF.CreationDate,2023-07-03T16:13:55+01:00
; #@! TF.GenerationSoftware,Kicad,Pcbnew,(6.0.2)
; #@! TF.FileFunction,Plated,1,2,PTH
FMAT,2
INCH
; #@! TA.AperFunction,Plated,PTH,ComponentDrill
T1C0.0402
%
G90
G05
T1
X4.2Y-2.9
X4.2Y-3.0
X4.2Y-3.1
X4.2Y-3.2
X4.2Y-3.5
X4.2Y-3.6
X4.2Y-3.7
X4.3Y-3.9
X4.3Y-4.0
X4.3Y-4.1
X4.4Y-3.9
X4.4Y-4.0
X4.5Y-3.9
X4.5Y-4.0
X4.6Y-3.9
X4.6Y-4.0
X4.8Y-4.1
X4.8Y-4.3
X4.8Y-4.4
X4.8005Y-3.8005
X4.8005Y-3.9005
X4.8005Y-4.0005
X5.2Y-2.8
X5.2Y-2.9
X5.2Y-3.0
X5.2Y-3.1
X5.2Y-3.2
X5.2Y-3.3
X5.3Y-3.7
X5.3Y-3.8
X5.3Y-3.9
X5.3Y-4.0
X5.3Y-4.1
X5.3Y-4.2
X5.3Y-4.3
X5.3Y-4.4
X5.8Y-2.9
X5.8Y-3.0
X5.8Y-3.2
X5.8Y-3.3
X5.8Y-3.7
X5.8Y-3.8
X5.8Y-3.9
X5.8Y-4.0
X5.8Y-4.1
X5.8Y-4.2
X5.8Y-4.3
X5.8Y-4.4
T0
M30
